<?xml version="1.0" standalone="no"?>
<!DOCTYPE svg PUBLIC "-//W3C//DTD SVG 20010904//EN"
 "http://www.w3.org/TR/2001/REC-SVG-20010904/DTD/svg10.dtd">
<svg version="1.0" xmlns="http://www.w3.org/2000/svg"
 width="767.000000pt" height="767.000000pt" viewBox="0 0 767.000000 767.000000"
 preserveAspectRatio="xMidYMid meet">
<metadata>
Created by potrace 1.14, written by Peter Selinger 2001-2017
</metadata>
<g transform="translate(0.000000,767.000000) scale(0.100000,-0.100000)"
fill="#000000" stroke="none">
<path d="M5498 7524 c-2 -1 -22 -5 -46 -9 -23 -3 -75 -15 -115 -26 -39 -11
-78 -21 -84 -21 -7 -1 -13 -5 -13 -10 0 -4 -6 -8 -13 -8 -30 0 -200 -95 -278
-156 -48 -38 -180 -176 -194 -205 -9 -16 -20 -29 -25 -29 -6 0 -10 -5 -10 -11
0 -6 -10 -25 -22 -42 -13 -18 -23 -34 -24 -37 0 -3 -18 -40 -38 -84 -77 -162
-111 -374 -90 -556 3 -25 6 -52 6 -60 0 -8 4 -31 9 -50 4 -19 10 -44 12 -55 2
-11 7 -27 10 -35 3 -8 13 -36 21 -63 14 -41 71 -158 101 -206 83 -131 211
-260 340 -342 59 -38 205 -105 245 -114 19 -4 40 -10 45 -13 11 -7 13 -7 70
-17 22 -4 43 -9 47 -11 5 -4 179 -16 213 -16 89 2 296 45 340 71 6 3 16 6 23
7 29 5 183 91 247 140 105 78 138 113 258 266 51 65 152 307 163 393 1 11 3
20 4 20 6 0 14 115 14 195 0 104 -8 187 -24 239 -5 19 -8 37 -5 39 3 3 1 10
-4 16 -5 6 -14 29 -21 51 -6 22 -20 59 -31 82 -10 24 -19 45 -19 48 0 3 -18
35 -40 71 -22 36 -40 68 -40 70 0 2 -8 12 -17 23 -10 10 -29 33 -42 51 -96
126 -344 302 -471 335 -3 0 -21 6 -41 13 -39 14 -49 16 -153 37 -56 11 -299
18 -308 9z"/>
<path d="M3888 7415 c-2 -2 -41 -6 -88 -9 -47 -4 -92 -8 -100 -11 -8 -2 -40
-6 -70 -10 -48 -4 -92 -11 -192 -29 -19 -4 -78 -17 -221 -51 -10 -2 -27 -7
-37 -10 -10 -3 -27 -7 -37 -9 -40 -8 -219 -69 -232 -80 -8 -6 -16 -10 -17 -9
-13 9 -179 -60 -364 -150 -154 -75 -397 -219 -480 -284 -8 -6 -53 -40 -100
-74 -47 -35 -90 -67 -96 -73 -6 -6 -35 -31 -65 -56 -121 -102 -294 -274 -407
-406 -31 -36 -152 -195 -194 -254 -46 -64 -118 -172 -118 -176 0 -2 -13 -26
-30 -52 -16 -27 -30 -51 -30 -54 0 -2 35 -4 78 -3 69 1 143 -5 242 -19 103
-15 247 -53 325 -86 76 -32 241 -114 248 -124 7 -11 9 -9 54 53 17 23 33 43
106 136 35 43 246 257 314 318 23 20 47 37 53 37 5 0 10 4 10 9 0 5 15 18 33
30 17 11 41 28 52 38 35 32 237 159 335 211 172 90 478 209 528 205 6 0 12 2
12 6 0 4 6 8 13 9 19 1 70 12 87 18 8 3 26 8 40 10 14 3 48 9 75 14 52 10 74
13 165 26 66 9 101 12 198 15 76 2 82 7 80 59 0 8 2 29 5 45 8 44 19 114 19
120 -1 19 61 224 87 288 33 81 94 201 117 228 8 8 14 19 14 23 0 4 18 32 41
62 22 31 38 59 34 62 -6 7 -480 13 -487 7z"/>
<path d="M7077 5813 c-3 -4 -26 -48 -52 -98 -46 -87 -116 -196 -142 -223 -7
-7 -13 -18 -13 -23 0 -9 -205 -217 -251 -255 -14 -12 -54 -40 -87 -63 -34 -23
-62 -45 -62 -49 0 -4 17 -43 39 -87 53 -109 81 -173 81 -185 0 -6 5 -18 10
-28 13 -22 50 -129 64 -187 4 -16 10 -37 13 -45 3 -8 8 -24 10 -34 2 -11 10
-45 18 -75 59 -232 86 -601 60 -836 -4 -38 -9 -86 -11 -105 -2 -19 -6 -45 -9
-57 -3 -12 -7 -39 -10 -60 -3 -21 -7 -47 -9 -58 -3 -11 -12 -54 -21 -95 -8
-41 -30 -120 -47 -175 -18 -55 -32 -102 -33 -105 -2 -11 -39 -106 -45 -115 -4
-5 -14 -31 -24 -57 -18 -49 -74 -160 -140 -281 l-38 -68 27 -20 c186 -147 394
-458 466 -699 13 -44 27 -80 31 -80 4 0 21 20 37 44 17 25 37 50 43 58 7 7 26
33 43 58 16 25 32 47 36 50 6 6 151 243 170 281 54 102 161 325 163 339 1 3 9
24 18 45 43 103 98 264 133 395 9 33 54 227 60 255 22 118 38 231 52 365 9 94
9 542 -1 635 -15 151 -30 249 -51 355 -3 14 -7 36 -10 50 -3 14 -7 36 -11 50
-3 14 -7 38 -10 53 -2 16 -6 33 -9 38 -4 5 -8 17 -10 27 -6 34 -27 108 -47
167 -11 33 -21 65 -23 70 -1 6 -5 17 -8 25 -3 8 -17 49 -32 90 -39 107 -110
267 -176 395 -71 138 -186 328 -192 318z"/>
<path d="M957 5134 c-1 -1 -22 -5 -47 -9 -76 -10 -211 -54 -300 -98 -47 -22
-86 -44 -88 -49 -2 -4 -10 -8 -18 -8 -8 0 -14 -4 -14 -8 0 -5 -10 -13 -22 -19
-55 -25 -195 -162 -260 -254 -46 -64 -143 -239 -133 -239 3 0 -1 -12 -8 -27
-16 -30 -43 -133 -54 -204 -10 -57 -10 -270 -1 -334 4 -27 15 -75 23 -105 9
-30 20 -68 24 -85 13 -46 101 -225 121 -245 3 -3 17 -23 32 -45 43 -62 136
-156 217 -218 40 -31 77 -57 81 -57 5 0 15 -6 22 -12 53 -50 262 -126 398
-145 110 -16 368 -5 410 17 8 4 29 10 45 13 64 10 203 73 293 132 88 57 101
67 189 155 103 103 190 238 239 369 14 36 26 73 28 81 2 8 9 35 16 59 19 72
24 130 24 261 0 129 -1 138 -28 255 -26 113 -85 245 -158 351 -64 93 -220 254
-247 254 -5 0 -11 4 -13 9 -3 9 -113 81 -123 81 -4 0 -21 10 -38 22 -18 13
-33 22 -34 21 -3 -3 -29 5 -58 17 -23 10 -68 23 -75 22 -3 0 -13 4 -22 9 -10
5 -37 12 -60 15 -24 3 -61 10 -82 14 -34 8 -272 11 -279 4z"/>
<path d="M1718 2622 c-2 -8 -87 -43 -138 -57 -128 -37 -148 -42 -199 -51 -18
-3 -43 -8 -55 -10 -114 -22 -312 -22 -489 1 -25 3 -27 1 -21 -18 7 -24 68
-159 87 -192 6 -11 17 -33 24 -50 8 -16 19 -39 26 -50 6 -11 24 -45 40 -75 16
-30 45 -79 63 -108 19 -29 34 -54 34 -56 0 -3 23 -37 50 -78 28 -40 56 -81 63
-92 26 -39 177 -229 228 -287 79 -89 234 -244 320 -319 40 -36 76 -68 77 -72
2 -5 8 -8 14 -8 6 0 18 -8 27 -18 24 -26 180 -142 191 -142 6 0 10 -4 10 -8 0
-5 12 -15 28 -23 15 -8 36 -22 46 -31 11 -10 26 -18 33 -18 7 0 13 -4 13 -9 0
-5 9 -13 20 -16 11 -3 26 -12 33 -18 7 -7 37 -25 67 -41 30 -16 57 -32 60 -35
9 -10 251 -127 350 -169 139 -58 368 -137 415 -143 6 -1 20 -5 33 -10 12 -5
33 -11 45 -14 12 -2 60 -13 107 -24 47 -10 102 -22 124 -25 21 -4 41 -8 45
-10 3 -2 29 -7 56 -11 28 -3 66 -9 85 -11 19 -3 55 -7 80 -9 25 -2 61 -6 80
-9 19 -3 103 -8 187 -11 131 -4 151 -2 147 10 -4 8 -10 15 -15 15 -5 0 -9 5
-9 10 0 6 -15 32 -32 58 -28 40 -60 95 -89 152 -18 36 -59 129 -59 135 0 4 -6
21 -14 38 -7 18 -18 50 -24 72 -6 22 -15 51 -19 65 -8 29 -12 48 -17 75 -2 11
-6 34 -9 50 -10 54 -19 139 -19 182 0 46 0 46 -93 58 -298 39 -665 162 -907
303 -21 12 -55 32 -75 43 -279 157 -592 444 -798 728 -58 80 -115 170 -115
181 0 6 -3 10 -8 10 -4 0 -22 29 -40 64 -33 64 -57 94 -64 78z"/>
<path d="M5247 2324 c-1 -2 -16 -5 -32 -8 -17 -3 -46 -8 -65 -11 -91 -16 -266
-89 -360 -150 -57 -37 -162 -127 -215 -184 -138 -149 -254 -395 -269 -571 -1
-14 -4 -30 -7 -35 -13 -24 1 -321 17 -346 2 -3 6 -20 9 -38 15 -88 82 -241
149 -340 20 -29 36 -54 36 -56 0 -6 75 -89 125 -137 130 -126 353 -243 520
-273 22 -4 49 -10 60 -12 11 -3 77 -7 146 -8 114 -3 144 0 294 29 46 9 155 51
220 85 124 64 182 107 291 218 192 195 300 456 303 736 4 297 -100 560 -302
768 -76 79 -132 129 -144 129 -4 0 -16 9 -27 19 -69 64 -329 166 -456 181 -29
3 -290 7 -293 4z"/>
</g>
</svg>
